<mxfile host="app.diagrams.net" agent="Mozilla/5.0 (Windows NT 10.0; Win64; x64) AppleWebKit/537.36 (KHTML, like Gecko) Chrome/134.0.0.0 Safari/537.36 Edg/134.0.0.0" version="26.0.16">
  <diagram name="第 1 页" id="MBLhdU2TjBbufwOTJT-2">
    <mxGraphModel dx="1775" dy="495" grid="1" gridSize="10" guides="1" tooltips="1" connect="1" arrows="1" fold="1" page="1" pageScale="1" pageWidth="850" pageHeight="1100" math="0" shadow="0">
      <root>
        <mxCell id="0" />
        <mxCell id="1" parent="0" />
        <mxCell id="Hu5TIbXfA8URCN4F6UHz-1" value="" style="edgeStyle=none;curved=1;rounded=0;orthogonalLoop=1;jettySize=auto;html=1;fontSize=12;startSize=8;endSize=8;endArrow=none;startFill=0;" edge="1" parent="1" source="Hu5TIbXfA8URCN4F6UHz-2" target="Hu5TIbXfA8URCN4F6UHz-9">
          <mxGeometry relative="1" as="geometry" />
        </mxCell>
        <mxCell id="Hu5TIbXfA8URCN4F6UHz-2" value="Match" style="swimlane;fontStyle=2;childLayout=stackLayout;horizontal=1;startSize=26;horizontalStack=0;resizeParent=1;resizeParentMax=0;resizeLast=0;collapsible=1;marginBottom=0;align=center;fontSize=14;fontFamily=Times New Roman;labelBackgroundColor=none;fillColor=light-dark(#c5eafb, #ededed);" vertex="1" parent="1">
          <mxGeometry x="-780" y="105" width="100" height="146" as="geometry">
            <mxRectangle x="220" y="260" width="80" height="30" as="alternateBounds" />
          </mxGeometry>
        </mxCell>
        <mxCell id="Hu5TIbXfA8URCN4F6UHz-3" value="&lt;i&gt;&lt;u&gt;match_id&lt;/u&gt;&lt;/i&gt;" style="text;strokeColor=none;fillColor=none;spacingLeft=12;spacingRight=4;overflow=hidden;rotatable=0;points=[[0,0.5],[1,0.5]];portConstraint=eastwest;fontSize=12;whiteSpace=wrap;html=1;fontFamily=Times New Roman;verticalAlign=middle;" vertex="1" parent="Hu5TIbXfA8URCN4F6UHz-2">
          <mxGeometry y="26" width="100" height="20" as="geometry" />
        </mxCell>
        <mxCell id="Hu5TIbXfA8URCN4F6UHz-4" value="&lt;i&gt;date&lt;/i&gt;" style="text;strokeColor=none;fillColor=none;spacingLeft=12;spacingRight=4;overflow=hidden;rotatable=0;points=[[0,0.5],[1,0.5]];portConstraint=eastwest;fontSize=12;whiteSpace=wrap;html=1;fontFamily=Times New Roman;verticalAlign=middle;" vertex="1" parent="Hu5TIbXfA8URCN4F6UHz-2">
          <mxGeometry y="46" width="100" height="20" as="geometry" />
        </mxCell>
        <mxCell id="Hu5TIbXfA8URCN4F6UHz-5" value="&lt;i&gt;studium&lt;/i&gt;" style="text;strokeColor=none;fillColor=none;spacingLeft=12;spacingRight=4;overflow=hidden;rotatable=0;points=[[0,0.5],[1,0.5]];portConstraint=eastwest;fontSize=12;whiteSpace=wrap;html=1;fontFamily=Times New Roman;verticalAlign=middle;" vertex="1" parent="Hu5TIbXfA8URCN4F6UHz-2">
          <mxGeometry y="66" width="100" height="20" as="geometry" />
        </mxCell>
        <mxCell id="Hu5TIbXfA8URCN4F6UHz-6" value="&lt;i&gt;home_team_id&lt;/i&gt;" style="text;strokeColor=none;fillColor=none;spacingLeft=12;spacingRight=4;overflow=hidden;rotatable=0;points=[[0,0.5],[1,0.5]];portConstraint=eastwest;fontSize=12;whiteSpace=wrap;html=1;fontFamily=Times New Roman;verticalAlign=middle;" vertex="1" parent="Hu5TIbXfA8URCN4F6UHz-2">
          <mxGeometry y="86" width="100" height="20" as="geometry" />
        </mxCell>
        <mxCell id="Hu5TIbXfA8URCN4F6UHz-7" value="&lt;i&gt;away_team_id&lt;/i&gt;" style="text;strokeColor=none;fillColor=none;spacingLeft=12;spacingRight=4;overflow=hidden;rotatable=0;points=[[0,0.5],[1,0.5]];portConstraint=eastwest;fontSize=12;whiteSpace=wrap;html=1;fontFamily=Times New Roman;verticalAlign=middle;" vertex="1" parent="Hu5TIbXfA8URCN4F6UHz-2">
          <mxGeometry y="106" width="100" height="20" as="geometry" />
        </mxCell>
        <mxCell id="Hu5TIbXfA8URCN4F6UHz-8" value="&lt;i&gt;winner&lt;/i&gt;" style="text;strokeColor=none;fillColor=none;spacingLeft=12;spacingRight=4;overflow=hidden;rotatable=0;points=[[0,0.5],[1,0.5]];portConstraint=eastwest;fontSize=12;whiteSpace=wrap;html=1;fontFamily=Times New Roman;verticalAlign=middle;" vertex="1" parent="Hu5TIbXfA8URCN4F6UHz-2">
          <mxGeometry y="126" width="100" height="20" as="geometry" />
        </mxCell>
        <mxCell id="Hu5TIbXfA8URCN4F6UHz-9" value="&lt;span style=&quot;font-size: 14px;&quot;&gt;participated&lt;/span&gt;" style="shape=rhombus;perimeter=rhombusPerimeter;whiteSpace=wrap;html=1;align=center;fillColor=light-dark(#e9f7fd, #ededed);fontFamily=Times New Roman;" vertex="1" parent="1">
          <mxGeometry x="-690" y="276" width="120" height="60" as="geometry" />
        </mxCell>
        <mxCell id="Hu5TIbXfA8URCN4F6UHz-10" value="" style="edgeStyle=none;curved=1;rounded=0;orthogonalLoop=1;jettySize=auto;html=1;fontSize=12;startSize=8;endSize=8;endArrow=none;startFill=0;" edge="1" parent="1" source="Hu5TIbXfA8URCN4F6UHz-17" target="Hu5TIbXfA8URCN4F6UHz-9">
          <mxGeometry relative="1" as="geometry">
            <mxPoint x="-502" y="175" as="targetPoint" />
          </mxGeometry>
        </mxCell>
        <mxCell id="Hu5TIbXfA8URCN4F6UHz-11" value="" style="edgeStyle=none;curved=1;rounded=0;orthogonalLoop=1;jettySize=auto;html=1;fontSize=12;startSize=8;endSize=8;endArrow=none;startFill=0;" edge="1" parent="1" source="Hu5TIbXfA8URCN4F6UHz-21" target="Hu5TIbXfA8URCN4F6UHz-16">
          <mxGeometry relative="1" as="geometry" />
        </mxCell>
        <mxCell id="Hu5TIbXfA8URCN4F6UHz-12" value="" style="edgeStyle=none;curved=1;rounded=0;orthogonalLoop=1;jettySize=auto;html=1;fontSize=12;startSize=8;endSize=8;dashed=1;endArrow=none;startFill=0;" edge="1" parent="1" source="Hu5TIbXfA8URCN4F6UHz-13" target="Hu5TIbXfA8URCN4F6UHz-9">
          <mxGeometry relative="1" as="geometry" />
        </mxCell>
        <mxCell id="Hu5TIbXfA8URCN4F6UHz-13" value="team_score" style="whiteSpace=wrap;html=1;align=center;fontFamily=Times New Roman;fontStyle=2" vertex="1" parent="1">
          <mxGeometry x="-780" y="346" width="80" height="30" as="geometry" />
        </mxCell>
        <mxCell id="Hu5TIbXfA8URCN4F6UHz-14" style="edgeStyle=none;curved=1;rounded=0;orthogonalLoop=1;jettySize=auto;html=1;exitX=0.5;exitY=0;exitDx=0;exitDy=0;fontSize=12;startSize=8;endSize=8;" edge="1" parent="1" source="Hu5TIbXfA8URCN4F6UHz-13" target="Hu5TIbXfA8URCN4F6UHz-13">
          <mxGeometry relative="1" as="geometry" />
        </mxCell>
        <mxCell id="Hu5TIbXfA8URCN4F6UHz-15" value="" style="edgeStyle=none;curved=1;rounded=0;orthogonalLoop=1;jettySize=auto;html=1;fontSize=12;startSize=8;endSize=8;endArrow=none;startFill=1;startArrow=classicThin;" edge="1" parent="1" source="Hu5TIbXfA8URCN4F6UHz-17" target="Hu5TIbXfA8URCN4F6UHz-16">
          <mxGeometry relative="1" as="geometry" />
        </mxCell>
        <mxCell id="Hu5TIbXfA8URCN4F6UHz-16" value="&lt;font style=&quot;font-size: 14px;&quot;&gt;service&lt;/font&gt;" style="shape=rhombus;perimeter=rhombusPerimeter;whiteSpace=wrap;html=1;align=center;fillColor=light-dark(#e9f7fd, #ededed);fontFamily=Times New Roman;" vertex="1" parent="1">
          <mxGeometry x="-535" y="266" width="120" height="60" as="geometry" />
        </mxCell>
        <mxCell id="Hu5TIbXfA8URCN4F6UHz-17" value="Team" style="swimlane;fontStyle=2;childLayout=stackLayout;horizontal=1;startSize=26;horizontalStack=0;resizeParent=1;resizeParentMax=0;resizeLast=0;collapsible=1;marginBottom=0;align=center;fontSize=14;fontFamily=Times New Roman;labelBackgroundColor=none;fillColor=light-dark(#c5eafb, #ededed);" vertex="1" parent="1">
          <mxGeometry x="-605" y="366" width="100" height="82" as="geometry">
            <mxRectangle x="220" y="260" width="80" height="30" as="alternateBounds" />
          </mxGeometry>
        </mxCell>
        <mxCell id="Hu5TIbXfA8URCN4F6UHz-18" value="&lt;i&gt;&lt;u&gt;team_id&lt;/u&gt;&lt;/i&gt;" style="text;strokeColor=none;fillColor=none;spacingLeft=12;spacingRight=4;overflow=hidden;rotatable=0;points=[[0,0.5],[1,0.5]];portConstraint=eastwest;fontSize=12;whiteSpace=wrap;html=1;fontFamily=Times New Roman;verticalAlign=middle;" vertex="1" parent="Hu5TIbXfA8URCN4F6UHz-17">
          <mxGeometry y="26" width="100" height="16" as="geometry" />
        </mxCell>
        <mxCell id="Hu5TIbXfA8URCN4F6UHz-19" value="&lt;i&gt;team_name&lt;/i&gt;" style="text;strokeColor=none;fillColor=none;spacingLeft=12;spacingRight=4;overflow=hidden;rotatable=0;points=[[0,0.5],[1,0.5]];portConstraint=eastwest;fontSize=12;whiteSpace=wrap;html=1;fontFamily=Times New Roman;verticalAlign=middle;" vertex="1" parent="Hu5TIbXfA8URCN4F6UHz-17">
          <mxGeometry y="42" width="100" height="20" as="geometry" />
        </mxCell>
        <mxCell id="Hu5TIbXfA8URCN4F6UHz-20" value="&lt;i&gt;league_name&lt;/i&gt;" style="text;strokeColor=none;fillColor=none;spacingLeft=12;spacingRight=4;overflow=hidden;rotatable=0;points=[[0,0.5],[1,0.5]];portConstraint=eastwest;fontSize=12;whiteSpace=wrap;html=1;fontFamily=Times New Roman;verticalAlign=middle;" vertex="1" parent="Hu5TIbXfA8URCN4F6UHz-17">
          <mxGeometry y="62" width="100" height="20" as="geometry" />
        </mxCell>
        <mxCell id="Hu5TIbXfA8URCN4F6UHz-21" value="Player" style="swimlane;fontStyle=2;childLayout=stackLayout;horizontal=1;startSize=26;horizontalStack=0;resizeParent=1;resizeParentMax=0;resizeLast=0;collapsible=1;marginBottom=0;align=center;fontSize=14;fontFamily=Times New Roman;labelBackgroundColor=none;fillColor=light-dark(#c5eafb, #ededed);" vertex="1" parent="1">
          <mxGeometry x="-440" y="125" width="100" height="106" as="geometry">
            <mxRectangle x="220" y="260" width="80" height="30" as="alternateBounds" />
          </mxGeometry>
        </mxCell>
        <mxCell id="Hu5TIbXfA8URCN4F6UHz-22" value="&lt;i&gt;&lt;u&gt;player_id&lt;/u&gt;&lt;/i&gt;" style="text;strokeColor=none;fillColor=none;spacingLeft=12;spacingRight=4;overflow=hidden;rotatable=0;points=[[0,0.5],[1,0.5]];portConstraint=eastwest;fontSize=12;whiteSpace=wrap;html=1;fontFamily=Times New Roman;verticalAlign=middle;" vertex="1" parent="Hu5TIbXfA8URCN4F6UHz-21">
          <mxGeometry y="26" width="100" height="20" as="geometry" />
        </mxCell>
        <mxCell id="Hu5TIbXfA8URCN4F6UHz-23" value="&lt;i&gt;name&lt;/i&gt;" style="text;strokeColor=none;fillColor=none;spacingLeft=12;spacingRight=4;overflow=hidden;rotatable=0;points=[[0,0.5],[1,0.5]];portConstraint=eastwest;fontSize=12;whiteSpace=wrap;html=1;fontFamily=Times New Roman;verticalAlign=middle;" vertex="1" parent="Hu5TIbXfA8URCN4F6UHz-21">
          <mxGeometry y="46" width="100" height="20" as="geometry" />
        </mxCell>
        <mxCell id="Hu5TIbXfA8URCN4F6UHz-24" value="&lt;i&gt;age&lt;/i&gt;" style="text;strokeColor=none;fillColor=none;spacingLeft=12;spacingRight=4;overflow=hidden;rotatable=0;points=[[0,0.5],[1,0.5]];portConstraint=eastwest;fontSize=12;whiteSpace=wrap;html=1;fontFamily=Times New Roman;verticalAlign=middle;" vertex="1" parent="Hu5TIbXfA8URCN4F6UHz-21">
          <mxGeometry y="66" width="100" height="20" as="geometry" />
        </mxCell>
        <mxCell id="Hu5TIbXfA8URCN4F6UHz-25" value="&lt;i&gt;sum&lt;/i&gt;&lt;i style=&quot;background-color: transparent; color: light-dark(rgb(0, 0, 0), rgb(255, 255, 255));&quot;&gt;_score()&lt;/i&gt;" style="text;strokeColor=none;fillColor=none;spacingLeft=12;spacingRight=4;overflow=hidden;rotatable=0;points=[[0,0.5],[1,0.5]];portConstraint=eastwest;fontSize=12;whiteSpace=wrap;html=1;fontFamily=Times New Roman;verticalAlign=middle;" vertex="1" parent="Hu5TIbXfA8URCN4F6UHz-21">
          <mxGeometry y="86" width="100" height="20" as="geometry" />
        </mxCell>
        <mxCell id="Hu5TIbXfA8URCN4F6UHz-26" value="&lt;font style=&quot;font-size: 14px;&quot;&gt;played&lt;/font&gt;" style="shape=rhombus;perimeter=rhombusPerimeter;whiteSpace=wrap;html=1;align=center;fillColor=light-dark(#e9f7fd, #ededed);fontFamily=Times New Roman;" vertex="1" parent="1">
          <mxGeometry x="-620" y="148" width="120" height="60" as="geometry" />
        </mxCell>
        <mxCell id="Hu5TIbXfA8URCN4F6UHz-27" value="" style="edgeStyle=none;curved=1;rounded=0;orthogonalLoop=1;jettySize=auto;html=1;fontSize=12;startSize=8;endSize=8;endArrow=none;startFill=0;" edge="1" parent="1" source="Hu5TIbXfA8URCN4F6UHz-21" target="Hu5TIbXfA8URCN4F6UHz-26">
          <mxGeometry relative="1" as="geometry">
            <mxPoint x="-500" y="320" as="sourcePoint" />
            <mxPoint x="-475" y="296" as="targetPoint" />
          </mxGeometry>
        </mxCell>
        <mxCell id="Hu5TIbXfA8URCN4F6UHz-28" value="" style="edgeStyle=none;curved=1;rounded=0;orthogonalLoop=1;jettySize=auto;html=1;fontSize=12;startSize=8;endSize=8;endArrow=none;startFill=0;startArrow=none;" edge="1" parent="1" source="Hu5TIbXfA8URCN4F6UHz-2" target="Hu5TIbXfA8URCN4F6UHz-26">
          <mxGeometry relative="1" as="geometry">
            <mxPoint x="-417" y="227" as="sourcePoint" />
            <mxPoint x="-438" y="254" as="targetPoint" />
          </mxGeometry>
        </mxCell>
        <mxCell id="Hu5TIbXfA8URCN4F6UHz-29" value="player_score" style="whiteSpace=wrap;html=1;align=center;fontFamily=Times New Roman;fontStyle=2" vertex="1" parent="1">
          <mxGeometry x="-600" y="60" width="80" height="30" as="geometry" />
        </mxCell>
        <mxCell id="Hu5TIbXfA8URCN4F6UHz-30" value="" style="edgeStyle=none;curved=1;rounded=0;orthogonalLoop=1;jettySize=auto;html=1;fontSize=12;startSize=8;endSize=8;dashed=1;endArrow=none;startFill=0;" edge="1" parent="1" source="Hu5TIbXfA8URCN4F6UHz-29" target="Hu5TIbXfA8URCN4F6UHz-26">
          <mxGeometry relative="1" as="geometry">
            <mxPoint x="-550" y="96" as="sourcePoint" />
            <mxPoint x="-550" y="156" as="targetPoint" />
          </mxGeometry>
        </mxCell>
        <mxCell id="Hu5TIbXfA8URCN4F6UHz-31" value="&lt;strong data-start=&quot;16&quot; data-end=&quot;33&quot;&gt;為醫院建立一個 E-R 圖&lt;/strong&gt;，其中包含一組&lt;strong data-start=&quot;40&quot; data-end=&quot;46&quot; data-is-only-node=&quot;&quot;&gt;病人&lt;/strong&gt;（patients）和一組&lt;strong data-start=&quot;59&quot; data-end=&quot;65&quot;&gt;醫生&lt;/strong&gt;（medical doctors）。&lt;br data-start=&quot;83&quot; data-end=&quot;86&quot;&gt;&#xa;為每位病人建立一個&lt;strong data-start=&quot;98&quot; data-end=&quot;104&quot;&gt;紀錄&lt;/strong&gt;，包含該病人所進行的各種&lt;strong data-start=&quot;116&quot; data-end=&quot;122&quot;&gt;測試&lt;/strong&gt;（tests）和&lt;strong data-start=&quot;130&quot; data-end=&quot;136&quot;&gt;檢查&lt;/strong&gt;（examinations）。" style="text;whiteSpace=wrap;html=1;" vertex="1" parent="1">
          <mxGeometry x="-230" y="78" width="530" height="70" as="geometry" />
        </mxCell>
        <mxCell id="Hu5TIbXfA8URCN4F6UHz-37" value="&lt;span style=&quot;font-size: 14px;&quot;&gt;take&lt;/span&gt;" style="shape=rhombus;perimeter=rhombusPerimeter;whiteSpace=wrap;html=1;align=center;fillColor=light-dark(#e9f7fd, #ededed);fontFamily=Times New Roman;" vertex="1" parent="1">
          <mxGeometry x="-280" y="346" width="120" height="60" as="geometry" />
        </mxCell>
        <mxCell id="Hu5TIbXfA8URCN4F6UHz-38" value="" style="edgeStyle=none;curved=1;rounded=0;orthogonalLoop=1;jettySize=auto;html=1;fontSize=12;startSize=8;endSize=8;endArrow=none;startFill=0;startArrow=none;" edge="1" parent="1" source="Hu5TIbXfA8URCN4F6UHz-44" target="Hu5TIbXfA8URCN4F6UHz-37">
          <mxGeometry relative="1" as="geometry">
            <mxPoint x="65" y="427.27272727272737" as="sourcePoint" />
            <mxPoint x="-315" y="322" as="targetPoint" />
          </mxGeometry>
        </mxCell>
        <mxCell id="Hu5TIbXfA8URCN4F6UHz-39" value="" style="edgeStyle=none;curved=1;rounded=0;orthogonalLoop=1;jettySize=auto;html=1;fontSize=12;startSize=8;endSize=8;endArrow=none;startFill=0;startArrow=none;" edge="1" parent="1" source="Hu5TIbXfA8URCN4F6UHz-53" target="Hu5TIbXfA8URCN4F6UHz-37">
          <mxGeometry relative="1" as="geometry">
            <mxPoint x="-169.99528846153834" y="376.0026442307693" as="sourcePoint" />
            <mxPoint x="153.31" y="422.0642857142858" as="targetPoint" />
          </mxGeometry>
        </mxCell>
        <mxCell id="Hu5TIbXfA8URCN4F6UHz-40" value="" style="edgeStyle=none;curved=1;rounded=0;orthogonalLoop=1;jettySize=auto;html=1;fontSize=12;startSize=8;endSize=8;endArrow=none;startFill=0;startArrow=none;" edge="1" parent="1" source="Hu5TIbXfA8URCN4F6UHz-41" target="Hu5TIbXfA8URCN4F6UHz-50">
          <mxGeometry relative="1" as="geometry">
            <mxPoint x="95" y="464" as="sourcePoint" />
            <mxPoint x="-9.090909090909008" y="450" as="targetPoint" />
          </mxGeometry>
        </mxCell>
        <mxCell id="Hu5TIbXfA8URCN4F6UHz-41" value="&lt;font style=&quot;font-size: 14px;&quot;&gt;treat&lt;/font&gt;" style="shape=rhombus;perimeter=rhombusPerimeter;whiteSpace=wrap;html=1;align=center;fillColor=light-dark(#e9f7fd, #ededed);fontFamily=Times New Roman;" vertex="1" parent="1">
          <mxGeometry x="-110" y="231" width="120" height="60" as="geometry" />
        </mxCell>
        <mxCell id="Hu5TIbXfA8URCN4F6UHz-44" value="Patients" style="swimlane;fontStyle=2;childLayout=stackLayout;horizontal=1;startSize=26;horizontalStack=0;resizeParent=1;resizeParentMax=0;resizeLast=0;collapsible=1;marginBottom=0;align=center;fontSize=14;fontFamily=Times New Roman;labelBackgroundColor=none;fillColor=light-dark(#c5eafb, #ededed);" vertex="1" parent="1">
          <mxGeometry x="-270" y="208" width="100" height="106" as="geometry">
            <mxRectangle x="220" y="260" width="80" height="30" as="alternateBounds" />
          </mxGeometry>
        </mxCell>
        <mxCell id="Hu5TIbXfA8URCN4F6UHz-45" value="&lt;i&gt;&lt;u&gt;patient_ID&lt;/u&gt;&lt;/i&gt;" style="text;strokeColor=none;fillColor=none;spacingLeft=12;spacingRight=4;overflow=hidden;rotatable=0;points=[[0,0.5],[1,0.5]];portConstraint=eastwest;fontSize=12;whiteSpace=wrap;html=1;fontFamily=Times New Roman;verticalAlign=middle;" vertex="1" parent="Hu5TIbXfA8URCN4F6UHz-44">
          <mxGeometry y="26" width="100" height="20" as="geometry" />
        </mxCell>
        <mxCell id="Hu5TIbXfA8URCN4F6UHz-46" value="&lt;i&gt;patient_name&lt;/i&gt;" style="text;strokeColor=none;fillColor=none;spacingLeft=12;spacingRight=4;overflow=hidden;rotatable=0;points=[[0,0.5],[1,0.5]];portConstraint=eastwest;fontSize=12;whiteSpace=wrap;html=1;fontFamily=Times New Roman;verticalAlign=middle;" vertex="1" parent="Hu5TIbXfA8URCN4F6UHz-44">
          <mxGeometry y="46" width="100" height="20" as="geometry" />
        </mxCell>
        <mxCell id="Hu5TIbXfA8URCN4F6UHz-59" value="&lt;i&gt;age&lt;/i&gt;" style="text;strokeColor=none;fillColor=none;spacingLeft=12;spacingRight=4;overflow=hidden;rotatable=0;points=[[0,0.5],[1,0.5]];portConstraint=eastwest;fontSize=12;whiteSpace=wrap;html=1;fontFamily=Times New Roman;verticalAlign=middle;" vertex="1" parent="Hu5TIbXfA8URCN4F6UHz-44">
          <mxGeometry y="66" width="100" height="20" as="geometry" />
        </mxCell>
        <mxCell id="Hu5TIbXfA8URCN4F6UHz-60" value="gender" style="text;strokeColor=none;fillColor=none;spacingLeft=12;spacingRight=4;overflow=hidden;rotatable=0;points=[[0,0.5],[1,0.5]];portConstraint=eastwest;fontSize=12;whiteSpace=wrap;html=1;fontFamily=Times New Roman;verticalAlign=middle;fontStyle=2" vertex="1" parent="Hu5TIbXfA8URCN4F6UHz-44">
          <mxGeometry y="86" width="100" height="20" as="geometry" />
        </mxCell>
        <mxCell id="Hu5TIbXfA8URCN4F6UHz-50" value="Doctors" style="swimlane;fontStyle=2;childLayout=stackLayout;horizontal=1;startSize=26;horizontalStack=0;resizeParent=1;resizeParentMax=0;resizeLast=0;collapsible=1;marginBottom=0;align=center;fontSize=14;fontFamily=Times New Roman;labelBackgroundColor=none;fillColor=light-dark(#c5eafb, #ededed);" vertex="1" parent="1">
          <mxGeometry x="55" y="218" width="100" height="86" as="geometry">
            <mxRectangle x="220" y="260" width="80" height="30" as="alternateBounds" />
          </mxGeometry>
        </mxCell>
        <mxCell id="Hu5TIbXfA8URCN4F6UHz-51" value="&lt;i&gt;&lt;u&gt;doctor_ID&lt;/u&gt;&lt;/i&gt;" style="text;strokeColor=none;fillColor=none;spacingLeft=12;spacingRight=4;overflow=hidden;rotatable=0;points=[[0,0.5],[1,0.5]];portConstraint=eastwest;fontSize=12;whiteSpace=wrap;html=1;fontFamily=Times New Roman;verticalAlign=middle;" vertex="1" parent="Hu5TIbXfA8URCN4F6UHz-50">
          <mxGeometry y="26" width="100" height="20" as="geometry" />
        </mxCell>
        <mxCell id="Hu5TIbXfA8URCN4F6UHz-52" value="&lt;i&gt;doctor_name&lt;/i&gt;" style="text;strokeColor=none;fillColor=none;spacingLeft=12;spacingRight=4;overflow=hidden;rotatable=0;points=[[0,0.5],[1,0.5]];portConstraint=eastwest;fontSize=12;whiteSpace=wrap;html=1;fontFamily=Times New Roman;verticalAlign=middle;" vertex="1" parent="Hu5TIbXfA8URCN4F6UHz-50">
          <mxGeometry y="46" width="100" height="20" as="geometry" />
        </mxCell>
        <mxCell id="Hu5TIbXfA8URCN4F6UHz-61" value="specialization" style="text;strokeColor=none;fillColor=none;spacingLeft=12;spacingRight=4;overflow=hidden;rotatable=0;points=[[0,0.5],[1,0.5]];portConstraint=eastwest;fontSize=12;whiteSpace=wrap;html=1;fontFamily=Times New Roman;verticalAlign=middle;fontStyle=2" vertex="1" parent="Hu5TIbXfA8URCN4F6UHz-50">
          <mxGeometry y="66" width="100" height="20" as="geometry" />
        </mxCell>
        <mxCell id="Hu5TIbXfA8URCN4F6UHz-53" value="Test_Exam" style="swimlane;fontStyle=2;childLayout=stackLayout;horizontal=1;startSize=26;horizontalStack=0;resizeParent=1;resizeParentMax=0;resizeLast=0;collapsible=1;marginBottom=0;align=center;fontSize=14;fontFamily=Times New Roman;labelBackgroundColor=none;fillColor=light-dark(#c5eafb, #ededed);" vertex="1" parent="1">
          <mxGeometry x="-270" y="448" width="100" height="66" as="geometry">
            <mxRectangle x="220" y="260" width="80" height="30" as="alternateBounds" />
          </mxGeometry>
        </mxCell>
        <mxCell id="Hu5TIbXfA8URCN4F6UHz-54" value="&lt;i&gt;&lt;u&gt;test_ID&lt;/u&gt;&lt;/i&gt;" style="text;strokeColor=none;fillColor=none;spacingLeft=12;spacingRight=4;overflow=hidden;rotatable=0;points=[[0,0.5],[1,0.5]];portConstraint=eastwest;fontSize=12;whiteSpace=wrap;html=1;fontFamily=Times New Roman;verticalAlign=middle;" vertex="1" parent="Hu5TIbXfA8URCN4F6UHz-53">
          <mxGeometry y="26" width="100" height="20" as="geometry" />
        </mxCell>
        <mxCell id="Hu5TIbXfA8URCN4F6UHz-55" value="&lt;i&gt;test_name&lt;/i&gt;" style="text;strokeColor=none;fillColor=none;spacingLeft=12;spacingRight=4;overflow=hidden;rotatable=0;points=[[0,0.5],[1,0.5]];portConstraint=eastwest;fontSize=12;whiteSpace=wrap;html=1;fontFamily=Times New Roman;verticalAlign=middle;" vertex="1" parent="Hu5TIbXfA8URCN4F6UHz-53">
          <mxGeometry y="46" width="100" height="20" as="geometry" />
        </mxCell>
        <mxCell id="Hu5TIbXfA8URCN4F6UHz-62" value="" style="edgeStyle=none;curved=1;rounded=0;orthogonalLoop=1;jettySize=auto;html=1;fontSize=12;startSize=8;endSize=8;endArrow=none;startFill=0;startArrow=none;" edge="1" parent="1" source="Hu5TIbXfA8URCN4F6UHz-44" target="Hu5TIbXfA8URCN4F6UHz-41">
          <mxGeometry relative="1" as="geometry">
            <mxPoint x="27" y="264" as="sourcePoint" />
            <mxPoint x="130" y="250" as="targetPoint" />
          </mxGeometry>
        </mxCell>
        <mxCell id="Hu5TIbXfA8URCN4F6UHz-64" value="Attribute" style="ellipse;whiteSpace=wrap;html=1;align=center;" vertex="1" parent="1">
          <mxGeometry x="-390" y="356" width="100" height="40" as="geometry" />
        </mxCell>
      </root>
    </mxGraphModel>
  </diagram>
</mxfile>
